<svg fill="none" height="50" viewBox="0 0 215 50" width="215" xmlns="http://www.w3.org/2000/svg" xmlns:xlink="http://www.w3.org/1999/xlink"><linearGradient id="a" gradientUnits="userSpaceOnUse" x1="7.99876" x2="27.6203" y1="7.84785" y2="27.4693"><stop offset="0" stop-color="#4a6cf7"/><stop offset="1" stop-color="#4a6cf7" stop-opacity="0"/></linearGradient><linearGradient id="b" gradientUnits="userSpaceOnUse" x1="7.99878" x2="27.6203" y1="21.9268" y2="41.5483"><stop offset="0" stop-color="#4a6cf7" stop-opacity="0"/><stop offset="1" stop-color="#4a6cf7"/></linearGradient><path d="m15.8259.884154c1.1789-1.178872 3.0902-1.178872 4.2691.000001l14.9418 14.941745c1.1788 1.1789 1.1788 3.0902 0 4.2691l-14.9418 14.9418c-1.1789 1.1788-3.0902 1.1788-4.2691 0l-14.941746-14.9418c-1.178872-1.1789-1.178872-3.0902.000001-4.2691z" fill="url(#a)"/><path d="m15.8259 14.9632c1.1789-1.1789 3.0902-1.1789 4.2691 0l14.9418 14.9417c1.1788 1.1789 1.1788 3.0902 0 4.2691l-14.9418 14.9418c-1.1789 1.1788-3.0902 1.1788-4.2691 0l-14.941746-14.9418c-1.178872-1.1789-1.178872-3.0902.000001-4.2691z" fill="url(#b)"/><g fill="#fff"><path d="m65.744 36.168c-1.728 0-3.3173-.288-4.768-.864-1.4293-.5973-2.6667-1.4187-3.712-2.464s-1.856-2.272-2.432-3.68c-.5547-1.408-.832-2.9333-.832-4.576s.288-3.1573.864-4.544c.5973-1.408 1.4293-2.624 2.496-3.648 1.088-1.0453 2.3573-1.856 3.808-2.432s3.04-.864 4.768-.864c1.1947 0 2.336.16 3.424.48s2.08.7573 2.976 1.312 1.6427 1.1947 2.24 1.92l-2.976 3.136c-.5547-.5333-1.1413-.9813-1.76-1.344-.5973-.384-1.2267-.672-1.888-.864-.6613-.2133-1.344-.32-2.048-.32-1.0027 0-1.9307.1813-2.784.544-.832.3627-1.568.864-2.208 1.504s-1.1413 1.3973-1.504 2.272c-.3413.8747-.512 1.824-.512 2.848 0 1.0027.1813 1.952.544 2.848.384.8747.896 1.6427 1.536 2.304.6613.64 1.4293 1.152 2.304 1.536.8747.3627 1.8133.544 2.816.544.704 0 1.376-.1067 2.016-.32s1.1947-.512 1.664-.896c.4907-.4053.864-.8747 1.12-1.408.2773-.5333.416-1.0987.416-1.696v-.768l.64.896h-6.4v-4h10.368c.0213.2347.0427.5227.064.864.0427.3413.064.6827.064 1.024.0213.32.032.576.032.768 0 1.4507-.2667 2.784-.8 4-.512 1.216-1.2373 2.2613-2.176 3.136-.9173.8747-2.0053 1.5573-3.264 2.048-1.2587.4693-2.624.704-4.096.704z"/><path d="m87.0478 36.168c-1.728 0-3.2747-.3733-4.6401-1.12-1.344-.768-2.4106-1.8133-3.1999-3.136-.768-1.3227-1.1521-2.8373-1.1521-4.544s.3841-3.2107 1.1521-4.512c.7893-1.3227 1.8559-2.368 3.1999-3.136 1.3654-.768 2.9121-1.152 4.6401-1.152 1.7066 0 3.232.384 4.576 1.152 1.3653.768 2.432 1.8133 3.1999 3.136.7681 1.3013 1.152 2.8053 1.152 4.512s-.3839 3.2213-1.152 4.544c-.7679 1.3227-1.8346 2.368-3.1999 3.136-1.344.7467-2.8694 1.12-4.576 1.12zm0-3.968c.832 0 1.5786-.2027 2.24-.608.6613-.4267 1.1733-1.0027 1.536-1.728.384-.7467.576-1.5787.576-2.496 0-.9387-.192-1.7707-.576-2.496-.3627-.7467-.8747-1.3227-1.536-1.728-.6614-.4267-1.408-.64-2.24-.64-.8534 0-1.6107.2133-2.272.64-.6614.4267-1.184 1.0027-1.568 1.728-.3841.7253-.5654 1.5573-.5441 2.496-.0213.9173.16 1.7493.5441 2.496.384.7253.9066 1.3013 1.568 1.728.6613.4053 1.4186.608 2.272.608z"/><path d="m106.799 36.168c-1.387 0-2.656-.1707-3.808-.512-1.131-.3413-2.144-.8427-3.0405-1.504-.8747-.6613-1.664-1.4613-2.368-2.4l3.0075-3.424c1.046 1.4507 2.081 2.4427 3.104 2.976 1.046.512 2.177.768 3.393.768.661 0 1.247-.0853 1.76-.256.533-.192.949-.4587 1.248-.8.298-.3413.448-.7467.448-1.216 0-.3413-.075-.6507-.224-.928-.15-.2987-.363-.5547-.64-.768-.278-.2347-.609-.4373-.992-.608-.384-.192-.811-.352-1.28-.48-.47-.1493-.982-.2667-1.536-.352-1.195-.2773-2.24-.608-3.136-.992-.896-.4053-1.643-.896-2.24-1.472-.5978-.5973-1.0458-1.2693-1.3445-2.016-.2773-.7467-.416-1.5893-.416-2.528 0-.96.2133-1.8453.64-2.656.4267-.832 1.0135-1.5467 1.7605-2.144.768-.5973 1.642-1.056 2.624-1.376 1.002-.32 2.058-.48 3.168-.48 1.365 0 2.56.16 3.584.48 1.024.2987 1.909.736 2.656 1.312.768.576 1.408 1.28 1.92 2.112l-3.04 2.944c-.448-.5973-.939-1.0987-1.472-1.504-.513-.4053-1.078-.704-1.696-.896-.598-.2133-1.216-.32-1.856-.32-.704 0-1.312.096-1.824.288-.512.1707-.918.4267-1.216.768-.278.3413-.416.7573-.416 1.248 0 .384.096.7253.288 1.024s.469.5653.832.8c.362.2133.799.4053 1.312.576.512.1707 1.077.32 1.695.448 1.174.2347 2.23.544 3.169.928.938.384 1.738.8533 2.4 1.408.682.5333 1.205 1.1733 1.568 1.92.362.7253.544 1.5467.544 2.464 0 1.5147-.363 2.8053-1.088 3.872-.726 1.0667-1.728 1.888-3.008 2.464-1.28.5547-2.774.832-4.48.832z"/><path d="m120.214 35.848v-21.216h4.544v21.216zm-3.168-12.864v-4.064h11.168v4.064z"/><path d="m136.855 36.168c-1.407 0-2.677-.384-3.807-1.152-1.131-.768-2.027-1.8133-2.689-3.136-.661-1.3227-.991-2.8373-.991-4.544s.33-3.2107.991-4.512c.683-1.3227 1.6-2.3573 2.752-3.104 1.152-.768 2.465-1.152 3.937-1.152.832 0 1.589.128 2.271.384.704.2347 1.313.5653 1.825.992.533.4267.981.9173 1.343 1.472.363.5547.619 1.152.769 1.792l-.96-.16v-4.128h4.511v16.928h-4.576v-4.064l1.025-.096c-.171.5973-.448 1.1627-.832 1.696-.385.5333-.865 1.0133-1.441 1.44-.554.4053-1.184.736-1.888.992-.704.2347-1.45.352-2.24.352zm1.249-3.936c.853 0 1.599-.2027 2.239-.608s1.131-.9707 1.472-1.696c.363-.7467.544-1.6107.544-2.592 0-.96-.181-1.8027-.544-2.528-.341-.7253-.832-1.2907-1.472-1.696-.64-.4267-1.386-.64-2.239-.64-.833 0-1.569.2133-2.208.64-.619.4053-1.11.9707-1.472 1.696-.363.7253-.544 1.568-.544 2.528 0 .9813.181 1.8453.544 2.592.362.7253.853 1.2907 1.472 1.696.639.4053 1.375.608 2.208.608z"/><path d="m150.863 35.848v-16.928h4.384l.16 5.44-.768-1.12c.256-.8747.672-1.664 1.248-2.368.576-.7253 1.248-1.2907 2.016-1.696.79-.4053 1.611-.608 2.464-.608.363 0 .715.032 1.056.096.342.064.63.1387.864.224l-1.216 4.992c-.256-.128-.565-.2347-.928-.32-.362-.1067-.736-.16-1.12-.16-.512 0-.992.096-1.44.288-.426.1707-.8.4267-1.12.768-.32.32-.576.704-.768 1.152-.17.448-.256.9387-.256 1.472v8.768z"/><path d="m166.651 35.848v-21.216h4.544v21.216zm-3.168-12.864v-4.064h11.168v4.064z"/><path d="m182.937 36.168c-1.237 0-2.304-.2667-3.2-.8-.874-.5547-1.557-1.3333-2.048-2.336-.469-1.024-.704-2.2507-.704-3.68v-10.432h4.544v9.696c0 .768.128 1.44.384 2.016.256.5547.619.9813 1.088 1.28.47.2987 1.046.448 1.728.448.491 0 .95-.0747 1.376-.224.427-.1707.79-.4053 1.088-.704.299-.2987.534-.6507.704-1.056.171-.4053.256-.8427.256-1.312v-10.144h4.544v16.928h-4.32l-.16-3.488.832-.384c-.256.7893-.682 1.504-1.28 2.144-.597.64-1.312 1.1413-2.144 1.504s-1.728.544-2.688.544z"/><path d="m196.77 42.888v-23.968h4.384l.127 3.808-.832-.288c.15-.6827.512-1.312 1.088-1.888.598-.576 1.334-1.0453 2.208-1.408.875-.3627 1.792-.544 2.752-.544 1.472 0 2.774.384 3.905 1.152 1.151.7467 2.058 1.7813 2.719 3.104.683 1.3013 1.024 2.8053 1.024 4.512 0 1.6853-.33 3.1893-.991 4.512-.662 1.3227-1.568 2.368-2.72 3.136-1.152.7467-2.465 1.12-3.937 1.12-.981 0-1.92-.1813-2.815-.544-.875-.384-1.622-.8853-2.241-1.504-.618-.6187-1.002-1.28-1.151-1.984l1.056-.448v11.232zm8.703-10.656c.832 0 1.569-.2027 2.209-.608s1.141-.9707 1.504-1.696c.362-.7467.543-1.6.543-2.56s-.181-1.8027-.543-2.528c-.363-.7253-.864-1.2907-1.504-1.696-.619-.4053-1.355-.608-2.209-.608-.853 0-1.6.2027-2.24.608-.64.384-1.141.9493-1.504 1.696-.362.7253-.543 1.568-.543 2.528s.181 1.8133.543 2.56c.363.7253.864 1.2907 1.504 1.696s1.387.608 2.24.608z"/></g></svg>